<svg viewBox="0 0 1024 1024" xmlns="http://www.w3.org/2000/svg">
  <g transform="translate(550,482.5) scale(1.08) translate(-550,-482.5)">
    <!-- crest feathers (behind head) -->
    <path d="M 460,200 C 430,160 420,110 445,70 C 460,115 462,160 470,200 Z" fill="#FFFFFF"/>
    <path d="M 430,205 C 400,175 392,135 405,100 C 420,140 425,175 440,205 Z" fill="#FDD835"/>

    <!-- main body/head silhouette (blue-and-gold macaw back/crown) -->
    <path d="
      M 250,520
      C 230,650 300,800 480,870
      C 560,895 650,880 700,820
      C 730,780 700,700 640,650
      C 700,660 760,630 800,560
      C 840,520 850,480 830,450
      C 810,430 760,440 720,470
      C 690,490 690,520 715,540
      C 650,520 600,480 560,430
      C 600,380 640,320 610,250
      C 590,190 520,150 450,160
      C 400,168 430,200 460,225
      C 400,230 330,260 300,330
      C 270,390 250,450 250,520
      Z"
      fill="#29B6F6" stroke="#FFFFFF" stroke-width="16" stroke-linejoin="round"/>

    <!-- white bare face patch -->
    <ellipse cx="560" cy="430" rx="130" ry="150" fill="#FFFFFF"/>

    <!-- eye -->
    <circle cx="600" cy="410" r="20" fill="#0D2440"/>

    <!-- green forehead accent -->
    <path d="M 480,290 C 520,260 580,260 610,290 C 580,320 520,320 480,290 Z" fill="#43A047"/>

    <!-- orange beak -->
    <path d="
      M 640,650
      C 700,660 760,630 800,560
      C 840,520 850,480 830,450
      C 810,430 760,440 720,470
      C 690,490 690,520 715,540
      C 650,520 600,480 560,430
      C 610,500 620,580 640,650
      Z" fill="#FB8C00"/>

    <!-- hooked-tip shading, kept fully inside the beak fill -->
    <path d="
      M 830,450
      C 850,478 848,508 818,533
      C 832,505 830,478 812,458
      C 817,452 824,450 830,450
      Z" fill="#E65100"/>

    <!-- yellow chest -->
    <path d="
      M 480,870
      C 560,895 650,880 700,820
      C 730,780 700,700 640,650
      C 600,700 560,760 540,830
      C 530,850 500,865 480,870
      Z" fill="#FDD835"/>
  </g>
</svg>
